<svg xmlns="http://www.w3.org/2000/svg" viewBox="0 0 511.989 511.989" style="enable-background:new 0 0 511.989 511.989" xml:space="preserve"><path style="fill:#ed5564" d="M391.523.001 255.994 15.063 0 271.057l240.933 240.932 255.994-255.994 15.062-135.521L391.523.001zm15.187 135.294c-4.047 4.047-9.405 6.273-15.124 6.273a21.052 21.052 0 0 1-14.969-6.195c-8.266-8.273-8.234-21.773.078-30.085 4.047-4.047 9.422-6.273 15.125-6.273 5.656 0 10.968 2.195 14.968 6.195 8.281 8.272 8.234 21.764-.078 30.085z"/><path style="fill:#da4453" d="M414.335 97.663c-6.219-6.211-14.359-9.32-22.515-9.32-8.203.008-16.406 3.141-22.672 9.398-12.484 12.499-12.531 32.726-.078 45.178 6.219 6.211 14.359 9.312 22.516 9.312a31.987 31.987 0 0 0 22.671-9.391c12.483-12.498 12.53-32.725.078-45.177zm-15.172 30.093c-2.733 2.734-5.921 3.148-7.577 3.148-1.625 0-4.75-.398-7.422-3.07-4.125-4.117-4.078-10.852.078-15.008 2.734-2.734 5.922-3.148 7.578-3.148 1.625 0 4.75.398 7.421 3.07 4.125 4.117 4.078 10.844-.078 15.008z"/><path transform="rotate(-134.999 173.017 339.053)" style="fill:#7f4545" d="M141.021 307.055h63.991v63.991h-63.991z"/><path style="fill:#8cc153" d="m112.654 263.612 188.559-52.796-52.797 188.551z"/><path style="fill:#a0d468" d="m188.09 218.371 158.386-52.796-52.794 158.387z"/></svg>