<svg width="24" height="24" fill="none" xmlns="http://www.w3.org/2000/svg"><path d="M3.139 13.898a3.689 3.689 0 0 1 0-3.796 1.475 1.475 0 0 1 1.056-.701l2.331-.333a1.07 1.07 0 0 0 .74-.466l.367-.55c.29-.437.436-.655.597-.851a5 5 0 0 1 2.16-1.522c.239-.086.493-.15 1.002-.277l.613-.153c.34-.085.51-.128.644-.086a.5.5 0 0 1 .278.217c.073.12.073.295.073.646v11.948c0 .35 0 .526-.073.645a.5.5 0 0 1-.278.218c-.134.042-.304 0-.644-.086l-.613-.153c-.509-.127-.763-.19-1.002-.277a5 5 0 0 1-2.16-1.522c-.161-.196-.307-.414-.597-.85l-.368-.55a1.07 1.07 0 0 0-.739-.467l-2.33-.333a1.475 1.475 0 0 1-1.057-.701Z" fill="#000"/><path fill-rule="evenodd" clip-rule="evenodd" d="M15.005 7.934a.75.75 0 0 1 1.06 0 5.75 5.75 0 0 1 .033 8.1.75.75 0 0 1-1.07-1.053 4.25 4.25 0 0 0-.023-5.986.75.75 0 0 1 0-1.06Z" fill="#000"/><path fill-rule="evenodd" clip-rule="evenodd" d="M18.127 5.813a.75.75 0 0 1 1.06 0 8.75 8.75 0 0 1 .049 12.325.75.75 0 1 1-1.07-1.052 7.25 7.25 0 0 0-.04-10.213.75.75 0 0 1 0-1.06Z" fill="#000"/></svg>