<svg width="24" height="24" fill="none" xmlns="http://www.w3.org/2000/svg"><path d="M3.139 13.898a3.689 3.689 0 0 1 0-3.796 1.476 1.476 0 0 1 1.056-.701l2.331-.333a1.07 1.07 0 0 0 .74-.466l.367-.55c.29-.437.436-.655.597-.851a5 5 0 0 1 2.16-1.522c.239-.086.493-.15 1.002-.277l.613-.153c.34-.085.51-.128.644-.086a.5.5 0 0 1 .278.217c.073.12.073.296.073.646v11.948c0 .35 0 .526-.073.646a.5.5 0 0 1-.278.217c-.134.042-.304 0-.644-.086l-.614-.153c-.508-.127-.762-.19-1.001-.277a5 5 0 0 1-2.16-1.522c-.161-.196-.307-.414-.597-.85l-.368-.55a1.07 1.07 0 0 0-.739-.467l-2.33-.333a1.476 1.476 0 0 1-1.057-.701ZM20.707 9.293a1 1 0 0 1 0 1.414L19.414 12l1.293 1.293a1 1 0 0 1-1.414 1.414L18 13.414l-1.293 1.293a1 1 0 1 1-1.414-1.414L16.586 12l-1.293-1.293a1 1 0 0 1 1.414-1.414L18 10.586l1.293-1.293a1 1 0 0 1 1.414 0Z" fill="#000"/></svg>